# xmcd
#
# Track frame offsets: 
#        150
#        11425
#        23672
#        35057
#        46495
#        57780
#        70102
#        80512
#        91705
#        101762
#        112247
#        124405
#
# Disc length: 1927 seconds
#
# Revision: 1
# Processed by: cddbd v1.5PL3 Copyright (c) Steve Scherf et al.
# Submitted via: ExactAudioCopy v0.90b4
#
DISCID=9b07850c
DTITLE=Stonewall Jackson - The Dynamic Stonewall Jackson
DYEAR=1900
DGENRE=Country
TTITLE0=Waterloo
TTITLE1=Smoke Along The Track
TTITLE2=Life To Go
TTITLE3=Run
TTITLE4=The Carpet On The Floor
TTITLE5=Man Has Cried
TTITLE6=Uncle Sam And Big John Bull
TTITLE7=Marry Don't You Weep
TTITLE8=Ward Of Broken Hearts
TTITLE9=Why I'm Walkin'
TTITLE10=Let's Call It A Day
TTITLE11=Black Sheep
EXTD=
EXTT0=
EXTT1=
EXTT2=
EXTT3=
EXTT4=
EXTT5=
EXTT6=
EXTT7=
EXTT8=
EXTT9=
EXTT10=
EXTT11=
PLAYORDER=
